<mxfile host="app.diagrams.net" modified="2023-10-04T14:22:08.623Z" agent="Mozilla/5.0 (Windows NT 10.0; Win64; x64) AppleWebKit/537.36 (KHTML, like Gecko) Chrome/116.0.0.0 Safari/537.36 OPR/102.0.0.0" etag="uoOGZicqYlMk4k1CMLzi" version="22.0.2" type="github">
  <diagram name="Sayfa -1" id="S-Tz8G7Cp1h8GfAUwTXo">
    <mxGraphModel dx="995" dy="1710" grid="1" gridSize="10" guides="1" tooltips="1" connect="1" arrows="1" fold="1" page="1" pageScale="1" pageWidth="827" pageHeight="1169" math="0" shadow="0">
      <root>
        <mxCell id="0" />
        <mxCell id="1" parent="0" />
        <mxCell id="p6-vss9Mwmbo4FJzbfOS-2" value="Text" style="text;html=1;align=center;verticalAlign=middle;resizable=0;points=[];autosize=1;strokeColor=none;fillColor=none;" vertex="1" parent="1">
          <mxGeometry x="84" y="183" width="50" height="30" as="geometry" />
        </mxCell>
        <mxCell id="p6-vss9Mwmbo4FJzbfOS-7" value="Universty" style="swimlane;fontStyle=1;align=center;verticalAlign=top;childLayout=stackLayout;horizontal=1;startSize=26;horizontalStack=0;resizeParent=1;resizeParentMax=0;resizeLast=0;collapsible=1;marginBottom=0;whiteSpace=wrap;html=1;" vertex="1" parent="1">
          <mxGeometry x="284" y="-1140" width="160" height="86" as="geometry">
            <mxRectangle x="320" y="-880" width="100" height="30" as="alternateBounds" />
          </mxGeometry>
        </mxCell>
        <mxCell id="p6-vss9Mwmbo4FJzbfOS-8" value="+ field: type" style="text;strokeColor=none;fillColor=none;align=left;verticalAlign=top;spacingLeft=4;spacingRight=4;overflow=hidden;rotatable=0;points=[[0,0.5],[1,0.5]];portConstraint=eastwest;whiteSpace=wrap;html=1;" vertex="1" parent="p6-vss9Mwmbo4FJzbfOS-7">
          <mxGeometry y="26" width="160" height="26" as="geometry" />
        </mxCell>
        <mxCell id="p6-vss9Mwmbo4FJzbfOS-9" value="" style="line;strokeWidth=1;fillColor=none;align=left;verticalAlign=middle;spacingTop=-1;spacingLeft=3;spacingRight=3;rotatable=0;labelPosition=right;points=[];portConstraint=eastwest;strokeColor=inherit;" vertex="1" parent="p6-vss9Mwmbo4FJzbfOS-7">
          <mxGeometry y="52" width="160" height="8" as="geometry" />
        </mxCell>
        <mxCell id="p6-vss9Mwmbo4FJzbfOS-10" value="+ method(type): type" style="text;strokeColor=none;fillColor=none;align=left;verticalAlign=top;spacingLeft=4;spacingRight=4;overflow=hidden;rotatable=0;points=[[0,0.5],[1,0.5]];portConstraint=eastwest;whiteSpace=wrap;html=1;" vertex="1" parent="p6-vss9Mwmbo4FJzbfOS-7">
          <mxGeometry y="60" width="160" height="26" as="geometry" />
        </mxCell>
        <mxCell id="p6-vss9Mwmbo4FJzbfOS-15" value="Class" style="swimlane;fontStyle=1;align=center;verticalAlign=top;childLayout=stackLayout;horizontal=1;startSize=26;horizontalStack=0;resizeParent=1;resizeParentMax=0;resizeLast=0;collapsible=1;marginBottom=0;whiteSpace=wrap;html=1;" vertex="1" parent="1">
          <mxGeometry x="44" y="-1100" width="160" height="86" as="geometry" />
        </mxCell>
        <mxCell id="p6-vss9Mwmbo4FJzbfOS-16" value="+ field: type" style="text;strokeColor=none;fillColor=none;align=left;verticalAlign=top;spacingLeft=4;spacingRight=4;overflow=hidden;rotatable=0;points=[[0,0.5],[1,0.5]];portConstraint=eastwest;whiteSpace=wrap;html=1;" vertex="1" parent="p6-vss9Mwmbo4FJzbfOS-15">
          <mxGeometry y="26" width="160" height="26" as="geometry" />
        </mxCell>
        <mxCell id="p6-vss9Mwmbo4FJzbfOS-17" value="" style="line;strokeWidth=1;fillColor=none;align=left;verticalAlign=middle;spacingTop=-1;spacingLeft=3;spacingRight=3;rotatable=0;labelPosition=right;points=[];portConstraint=eastwest;strokeColor=inherit;" vertex="1" parent="p6-vss9Mwmbo4FJzbfOS-15">
          <mxGeometry y="52" width="160" height="8" as="geometry" />
        </mxCell>
        <mxCell id="p6-vss9Mwmbo4FJzbfOS-18" value="+ method(type): type" style="text;strokeColor=none;fillColor=none;align=left;verticalAlign=top;spacingLeft=4;spacingRight=4;overflow=hidden;rotatable=0;points=[[0,0.5],[1,0.5]];portConstraint=eastwest;whiteSpace=wrap;html=1;" vertex="1" parent="p6-vss9Mwmbo4FJzbfOS-15">
          <mxGeometry y="60" width="160" height="26" as="geometry" />
        </mxCell>
        <mxCell id="p6-vss9Mwmbo4FJzbfOS-25" value="" style="endArrow=diamondThin;endFill=1;endSize=24;html=1;rounded=0;" edge="1" parent="1" source="p6-vss9Mwmbo4FJzbfOS-15" target="p6-vss9Mwmbo4FJzbfOS-7">
          <mxGeometry width="160" relative="1" as="geometry">
            <mxPoint x="374" y="-557" as="sourcePoint" />
            <mxPoint x="534" y="-557" as="targetPoint" />
          </mxGeometry>
        </mxCell>
        <mxCell id="p6-vss9Mwmbo4FJzbfOS-30" value="Office" style="swimlane;fontStyle=1;align=center;verticalAlign=top;childLayout=stackLayout;horizontal=1;startSize=26;horizontalStack=0;resizeParent=1;resizeParentMax=0;resizeLast=0;collapsible=1;marginBottom=0;whiteSpace=wrap;html=1;" vertex="1" parent="1">
          <mxGeometry x="524" y="-1100" width="160" height="86" as="geometry" />
        </mxCell>
        <mxCell id="p6-vss9Mwmbo4FJzbfOS-31" value="+ field: type" style="text;strokeColor=none;fillColor=none;align=left;verticalAlign=top;spacingLeft=4;spacingRight=4;overflow=hidden;rotatable=0;points=[[0,0.5],[1,0.5]];portConstraint=eastwest;whiteSpace=wrap;html=1;" vertex="1" parent="p6-vss9Mwmbo4FJzbfOS-30">
          <mxGeometry y="26" width="160" height="26" as="geometry" />
        </mxCell>
        <mxCell id="p6-vss9Mwmbo4FJzbfOS-32" value="" style="line;strokeWidth=1;fillColor=none;align=left;verticalAlign=middle;spacingTop=-1;spacingLeft=3;spacingRight=3;rotatable=0;labelPosition=right;points=[];portConstraint=eastwest;strokeColor=inherit;" vertex="1" parent="p6-vss9Mwmbo4FJzbfOS-30">
          <mxGeometry y="52" width="160" height="8" as="geometry" />
        </mxCell>
        <mxCell id="p6-vss9Mwmbo4FJzbfOS-33" value="+ method(type): type" style="text;strokeColor=none;fillColor=none;align=left;verticalAlign=top;spacingLeft=4;spacingRight=4;overflow=hidden;rotatable=0;points=[[0,0.5],[1,0.5]];portConstraint=eastwest;whiteSpace=wrap;html=1;" vertex="1" parent="p6-vss9Mwmbo4FJzbfOS-30">
          <mxGeometry y="60" width="160" height="26" as="geometry" />
        </mxCell>
        <mxCell id="p6-vss9Mwmbo4FJzbfOS-34" value="Departman" style="swimlane;fontStyle=1;align=center;verticalAlign=top;childLayout=stackLayout;horizontal=1;startSize=26;horizontalStack=0;resizeParent=1;resizeParentMax=0;resizeLast=0;collapsible=1;marginBottom=0;whiteSpace=wrap;html=1;" vertex="1" parent="1">
          <mxGeometry x="284" y="-900" width="160" height="86" as="geometry" />
        </mxCell>
        <mxCell id="p6-vss9Mwmbo4FJzbfOS-35" value="+ field: type" style="text;strokeColor=none;fillColor=none;align=left;verticalAlign=top;spacingLeft=4;spacingRight=4;overflow=hidden;rotatable=0;points=[[0,0.5],[1,0.5]];portConstraint=eastwest;whiteSpace=wrap;html=1;" vertex="1" parent="p6-vss9Mwmbo4FJzbfOS-34">
          <mxGeometry y="26" width="160" height="26" as="geometry" />
        </mxCell>
        <mxCell id="p6-vss9Mwmbo4FJzbfOS-36" value="" style="line;strokeWidth=1;fillColor=none;align=left;verticalAlign=middle;spacingTop=-1;spacingLeft=3;spacingRight=3;rotatable=0;labelPosition=right;points=[];portConstraint=eastwest;strokeColor=inherit;" vertex="1" parent="p6-vss9Mwmbo4FJzbfOS-34">
          <mxGeometry y="52" width="160" height="8" as="geometry" />
        </mxCell>
        <mxCell id="p6-vss9Mwmbo4FJzbfOS-37" value="+ method(type): type" style="text;strokeColor=none;fillColor=none;align=left;verticalAlign=top;spacingLeft=4;spacingRight=4;overflow=hidden;rotatable=0;points=[[0,0.5],[1,0.5]];portConstraint=eastwest;whiteSpace=wrap;html=1;" vertex="1" parent="p6-vss9Mwmbo4FJzbfOS-34">
          <mxGeometry y="60" width="160" height="26" as="geometry" />
        </mxCell>
        <mxCell id="p6-vss9Mwmbo4FJzbfOS-38" value="" style="endArrow=diamondThin;endFill=1;endSize=24;html=1;rounded=0;" edge="1" parent="1" source="p6-vss9Mwmbo4FJzbfOS-30" target="p6-vss9Mwmbo4FJzbfOS-7">
          <mxGeometry width="160" relative="1" as="geometry">
            <mxPoint x="354" y="-467" as="sourcePoint" />
            <mxPoint x="514" y="-467" as="targetPoint" />
          </mxGeometry>
        </mxCell>
        <mxCell id="p6-vss9Mwmbo4FJzbfOS-41" value="" style="endArrow=diamondThin;endFill=1;endSize=24;html=1;rounded=0;" edge="1" parent="1" source="p6-vss9Mwmbo4FJzbfOS-34" target="p6-vss9Mwmbo4FJzbfOS-7">
          <mxGeometry width="160" relative="1" as="geometry">
            <mxPoint x="274" y="-577" as="sourcePoint" />
            <mxPoint x="434" y="-577" as="targetPoint" />
            <Array as="points" />
          </mxGeometry>
        </mxCell>
        <mxCell id="p6-vss9Mwmbo4FJzbfOS-42" value="Employee" style="swimlane;fontStyle=1;align=center;verticalAlign=top;childLayout=stackLayout;horizontal=1;startSize=26;horizontalStack=0;resizeParent=1;resizeParentMax=0;resizeLast=0;collapsible=1;marginBottom=0;whiteSpace=wrap;html=1;" vertex="1" parent="1">
          <mxGeometry x="524" y="-894" width="160" height="86" as="geometry" />
        </mxCell>
        <mxCell id="p6-vss9Mwmbo4FJzbfOS-43" value="+ field: type" style="text;strokeColor=none;fillColor=none;align=left;verticalAlign=top;spacingLeft=4;spacingRight=4;overflow=hidden;rotatable=0;points=[[0,0.5],[1,0.5]];portConstraint=eastwest;whiteSpace=wrap;html=1;" vertex="1" parent="p6-vss9Mwmbo4FJzbfOS-42">
          <mxGeometry y="26" width="160" height="26" as="geometry" />
        </mxCell>
        <mxCell id="p6-vss9Mwmbo4FJzbfOS-44" value="" style="line;strokeWidth=1;fillColor=none;align=left;verticalAlign=middle;spacingTop=-1;spacingLeft=3;spacingRight=3;rotatable=0;labelPosition=right;points=[];portConstraint=eastwest;strokeColor=inherit;" vertex="1" parent="p6-vss9Mwmbo4FJzbfOS-42">
          <mxGeometry y="52" width="160" height="8" as="geometry" />
        </mxCell>
        <mxCell id="p6-vss9Mwmbo4FJzbfOS-45" value="+ method(type): type" style="text;strokeColor=none;fillColor=none;align=left;verticalAlign=top;spacingLeft=4;spacingRight=4;overflow=hidden;rotatable=0;points=[[0,0.5],[1,0.5]];portConstraint=eastwest;whiteSpace=wrap;html=1;" vertex="1" parent="p6-vss9Mwmbo4FJzbfOS-42">
          <mxGeometry y="60" width="160" height="26" as="geometry" />
        </mxCell>
        <mxCell id="p6-vss9Mwmbo4FJzbfOS-46" value="Proffesor&lt;br&gt;" style="swimlane;fontStyle=1;align=center;verticalAlign=top;childLayout=stackLayout;horizontal=1;startSize=26;horizontalStack=0;resizeParent=1;resizeParentMax=0;resizeLast=0;collapsible=1;marginBottom=0;whiteSpace=wrap;html=1;" vertex="1" parent="1">
          <mxGeometry x="624" y="-740" width="160" height="86" as="geometry" />
        </mxCell>
        <mxCell id="p6-vss9Mwmbo4FJzbfOS-47" value="+ field: type" style="text;strokeColor=none;fillColor=none;align=left;verticalAlign=top;spacingLeft=4;spacingRight=4;overflow=hidden;rotatable=0;points=[[0,0.5],[1,0.5]];portConstraint=eastwest;whiteSpace=wrap;html=1;" vertex="1" parent="p6-vss9Mwmbo4FJzbfOS-46">
          <mxGeometry y="26" width="160" height="26" as="geometry" />
        </mxCell>
        <mxCell id="p6-vss9Mwmbo4FJzbfOS-48" value="" style="line;strokeWidth=1;fillColor=none;align=left;verticalAlign=middle;spacingTop=-1;spacingLeft=3;spacingRight=3;rotatable=0;labelPosition=right;points=[];portConstraint=eastwest;strokeColor=inherit;" vertex="1" parent="p6-vss9Mwmbo4FJzbfOS-46">
          <mxGeometry y="52" width="160" height="8" as="geometry" />
        </mxCell>
        <mxCell id="p6-vss9Mwmbo4FJzbfOS-49" value="+ method(type): type" style="text;strokeColor=none;fillColor=none;align=left;verticalAlign=top;spacingLeft=4;spacingRight=4;overflow=hidden;rotatable=0;points=[[0,0.5],[1,0.5]];portConstraint=eastwest;whiteSpace=wrap;html=1;" vertex="1" parent="p6-vss9Mwmbo4FJzbfOS-46">
          <mxGeometry y="60" width="160" height="26" as="geometry" />
        </mxCell>
        <mxCell id="p6-vss9Mwmbo4FJzbfOS-50" value="Officer" style="swimlane;fontStyle=1;align=center;verticalAlign=top;childLayout=stackLayout;horizontal=1;startSize=26;horizontalStack=0;resizeParent=1;resizeParentMax=0;resizeLast=0;collapsible=1;marginBottom=0;whiteSpace=wrap;html=1;" vertex="1" parent="1">
          <mxGeometry x="424" y="-740" width="160" height="86" as="geometry" />
        </mxCell>
        <mxCell id="p6-vss9Mwmbo4FJzbfOS-51" value="+ field: type" style="text;strokeColor=none;fillColor=none;align=left;verticalAlign=top;spacingLeft=4;spacingRight=4;overflow=hidden;rotatable=0;points=[[0,0.5],[1,0.5]];portConstraint=eastwest;whiteSpace=wrap;html=1;" vertex="1" parent="p6-vss9Mwmbo4FJzbfOS-50">
          <mxGeometry y="26" width="160" height="26" as="geometry" />
        </mxCell>
        <mxCell id="p6-vss9Mwmbo4FJzbfOS-52" value="" style="line;strokeWidth=1;fillColor=none;align=left;verticalAlign=middle;spacingTop=-1;spacingLeft=3;spacingRight=3;rotatable=0;labelPosition=right;points=[];portConstraint=eastwest;strokeColor=inherit;" vertex="1" parent="p6-vss9Mwmbo4FJzbfOS-50">
          <mxGeometry y="52" width="160" height="8" as="geometry" />
        </mxCell>
        <mxCell id="p6-vss9Mwmbo4FJzbfOS-53" value="+ method(type): type" style="text;strokeColor=none;fillColor=none;align=left;verticalAlign=top;spacingLeft=4;spacingRight=4;overflow=hidden;rotatable=0;points=[[0,0.5],[1,0.5]];portConstraint=eastwest;whiteSpace=wrap;html=1;" vertex="1" parent="p6-vss9Mwmbo4FJzbfOS-50">
          <mxGeometry y="60" width="160" height="26" as="geometry" />
        </mxCell>
        <mxCell id="p6-vss9Mwmbo4FJzbfOS-64" value="" style="endArrow=block;endFill=1;html=1;edgeStyle=orthogonalEdgeStyle;align=left;verticalAlign=top;rounded=0;" edge="1" parent="1" source="p6-vss9Mwmbo4FJzbfOS-42" target="p6-vss9Mwmbo4FJzbfOS-30">
          <mxGeometry x="-1" relative="1" as="geometry">
            <mxPoint x="364" y="-637" as="sourcePoint" />
            <mxPoint x="524" y="-637" as="targetPoint" />
          </mxGeometry>
        </mxCell>
        <mxCell id="p6-vss9Mwmbo4FJzbfOS-67" value="" style="endArrow=diamondThin;endFill=0;endSize=24;html=1;rounded=0;" edge="1" parent="1" source="p6-vss9Mwmbo4FJzbfOS-50" target="p6-vss9Mwmbo4FJzbfOS-42">
          <mxGeometry width="160" relative="1" as="geometry">
            <mxPoint x="674" y="-807" as="sourcePoint" />
            <mxPoint x="834" y="-807" as="targetPoint" />
            <Array as="points">
              <mxPoint x="604" y="-770" />
            </Array>
          </mxGeometry>
        </mxCell>
        <mxCell id="p6-vss9Mwmbo4FJzbfOS-68" value="" style="endArrow=diamondThin;endFill=0;endSize=24;html=1;rounded=0;" edge="1" parent="1" source="p6-vss9Mwmbo4FJzbfOS-46" target="p6-vss9Mwmbo4FJzbfOS-42">
          <mxGeometry width="160" relative="1" as="geometry">
            <mxPoint x="793" y="-757" as="sourcePoint" />
            <mxPoint x="835" y="-821" as="targetPoint" />
            <Array as="points">
              <mxPoint x="604" y="-770" />
            </Array>
          </mxGeometry>
        </mxCell>
        <mxCell id="p6-vss9Mwmbo4FJzbfOS-71" value="" style="endArrow=none;html=1;edgeStyle=orthogonalEdgeStyle;rounded=0;" edge="1" parent="1" source="p6-vss9Mwmbo4FJzbfOS-34" target="p6-vss9Mwmbo4FJzbfOS-30">
          <mxGeometry relative="1" as="geometry">
            <mxPoint x="634" y="-544.34" as="sourcePoint" />
            <mxPoint x="794" y="-544.34" as="targetPoint" />
            <Array as="points">
              <mxPoint x="484" y="-857" />
              <mxPoint x="484" y="-980" />
              <mxPoint x="564" y="-980" />
            </Array>
          </mxGeometry>
        </mxCell>
      </root>
    </mxGraphModel>
  </diagram>
</mxfile>
